<svg xmlns="http://www.w3.org/2000/svg" viewBox="0 0 32 32">
  <!-- Background circle for better contrast/defined shape -->
  <circle cx="16" cy="16" r="15" fill="#E0F2FE" />
  <!-- Sun part - yellow -->
  <path fill="#FFD700" d="M16 6 A10 10 0 0 1 26 16 A10 10 0 0 1 16 26 A10 10 0 0 1 6 16 A10 10 0 0 1 16 6 Z"/>
  <!-- Cloud part - white, slightly more prominent -->
  <path fill="#FFFFFF" stroke="#B0E0E6" stroke-width="0.5" d="M21,14 C21,11.24 18.76,9 16,9 C13.24,9 11,11.24 11,14 C8,14 6,16.24 6,19 C6,21.76 8.24,24 11,24 L23,24 C25.76,24 28,21.76 28,19 C28,16.24 25.76,14 23,14 L21,14 Z"/>
</svg>