<?xml version="1.0" encoding="UTF-8"?>
<svg width="100" height="100" viewBox="0 0 100 100" xmlns="http://www.w3.org/2000/svg">
  <defs>
    <linearGradient id="cloudGradient" x1="0%" y1="0%" x2="0%" y2="100%">
      <stop offset="0%" stop-color="#F5F5F5" />
      <stop offset="100%" stop-color="#E0E0E0" />
    </linearGradient>
    <linearGradient id="snowGradient" x1="0%" y1="0%" x2="0%" y2="100%">
      <stop offset="0%" stop-color="#FFFFFF" />
      <stop offset="100%" stop-color="#F0F0F0" />
    </linearGradient>
  </defs>
  <path d="M25,50 Q10,50 10,35 Q10,20 25,20 Q25,0 50,0 Q75,0 75,20 Q90,20 90,35 Q90,50 75,50 Z" fill="url(#cloudGradient)" stroke="#D3D3D3" stroke-width="2" />
  <!-- Snowflakes -->
  <g transform="translate(30, 65)">
    <circle cx="0" cy="0" r="5" fill="url(#snowGradient)" stroke="#E0E0E0" stroke-width="1" />
    <line x1="-4" y1="-4" x2="4" y2="4" stroke="#E0E0E0" stroke-width="1" />
    <line x1="-4" y1="4" x2="4" y2="-4" stroke="#E0E0E0" stroke-width="1" />
    <line x1="0" y1="-6" x2="0" y2="6" stroke="#E0E0E0" stroke-width="1" />
    <line x1="-6" y1="0" x2="6" y2="0" stroke="#E0E0E0" stroke-width="1" />
  </g>
  <g transform="translate(50, 70)">
    <circle cx="0" cy="0" r="5" fill="url(#snowGradient)" stroke="#E0E0E0" stroke-width="1" />
    <line x1="-4" y1="-4" x2="4" y2="4" stroke="#E0E0E0" stroke-width="1" />
    <line x1="-4" y1="4" x2="4" y2="-4" stroke="#E0E0E0" stroke-width="1" />
    <line x1="0" y1="-6" x2="0" y2="6" stroke="#E0E0E0" stroke-width="1" />
    <line x1="-6" y1="0" x2="6" y2="0" stroke="#E0E0E0" stroke-width="1" />
  </g>
  <g transform="translate(70, 65)">
    <circle cx="0" cy="0" r="5" fill="url(#snowGradient)" stroke="#E0E0E0" stroke-width="1" />
    <line x1="-4" y1="-4" x2="4" y2="4" stroke="#E0E0E0" stroke-width="1" />
    <line x1="-4" y1="4" x2="4" y2="-4" stroke="#E0E0E0" stroke-width="1" />
    <line x1="0" y1="-6" x2="0" y2="6" stroke="#E0E0E0" stroke-width="1" />
    <line x1="-6" y1="0" x2="6" y2="0" stroke="#E0E0E0" stroke-width="1" />
  </g>
</svg>

